<svg width="698" height="484" viewBox="0 0 698 484" fill="none" xmlns="http://www.w3.org/2000/svg">
<path d="M248.074 275.576L248.048 275.556L248.035 275.546C236.713 266.936 228.041 260.34 224.462 258.241L220.462 262.241C219.305 263.398 218.14 264.546 216.704 265.961C213.175 269.439 208.008 274.53 197.299 285.333C161.178 321.763 74.4897 411.306 35.5103 451.569L35.4897 451.591L35.3486 451.737L34.9326 452.166C23.5991 463.872 16.4424 471.265 15.9668 471.733C13.0669 474.587 25.5669 482.167 38.5 482C51.1665 484.533 641.035 484.533 651.835 482C673.968 476.8 691.168 459.067 695.835 436.667C696.902 431.733 697.302 371.066 697.302 233.2C697.302 40.6665 697.302 36.5338 694.635 28.1339C691.436 17.6006 684.369 9.06778 675.168 4.40109L668.635 1.06784L352.634 0.801117L36.6333 0.401093C21.0664 0.401093 7.56689 8.66733 2.5 22.6673L56.8999 68.0002C129.795 128.637 181.613 170.515 216.699 198.871C231.005 210.433 242.529 219.746 251.566 227.167C258.646 233.002 319.066 280.133 340.566 290.666C353.566 297.036 402.068 247.666 402.068 247.666L453.667 194.133L444.468 189.733C429.401 182.666 416.867 180.799 356.201 176.799C328.734 174.933 325.933 174.533 323.133 171.866C319.4 168.4 319 161.6 322.467 157.6C324.733 154.8 375.402 136.666 556.334 74.133C615.535 53.7331 617.535 53.0667 622.735 54.6667C628.202 56.2667 632.068 61.1999 632.068 66.6666C632.068 68.1333 620.202 99.9996 605.535 137.733C597.345 158.921 586.022 188.322 574.955 217.062L574.909 217.182L574.896 217.214L574.795 217.475C566.277 239.595 557.919 261.297 551.268 278.533C532.868 326.4 522.334 352.133 520.201 354.266C517.935 356.533 515.535 357.466 511.935 357.466C498.734 357.466 498.201 355.866 499.401 311.599C500.334 272.933 499.401 258.933 494.734 243.733C491.535 233.466 487.667 228.133 483.535 228.133C479.801 228.133 463.935 241.6 422.068 280.133C410.404 290.829 400.753 300.257 392.461 308.357C376.771 323.685 365.947 334.258 355.567 339.666C341.714 346.794 282.621 301.85 248.074 275.576Z" fill="black"/>
<path d="M1 437.041C77.5428 357.765 120.457 313.317 197 234.041" stroke="black"/>
<path d="M2.5 68.041L1 437.041L197 234.041L2.5 68.041Z" fill="black" stroke="black"/>
</svg>
